<?xml version="1.0" encoding="utf-8"?>
<!-- Generator: Adobe Illustrator 16.0.0, SVG Export Plug-In . SVG Version: 6.00 Build 0)  -->
<!DOCTYPE svg PUBLIC "-//W3C//DTD SVG 1.1//EN" "http://www.w3.org/Graphics/SVG/1.1/DTD/svg11.dtd">
<svg version="1.1" id="Layer_1" xmlns="http://www.w3.org/2000/svg" xmlns:xlink="http://www.w3.org/1999/xlink" x="0px" y="0px"
	 width="100px" height="92.253px" viewBox="0 0 100 92.253" enable-background="new 0 0 100 92.253" xml:space="preserve">
<g>
	<g>
		<g>
			<path d="M30.637,32.197c0,0,2.677-0.486,3.567,0.65c0.892,1.135,1.623,4.053,2.108,7.135c0.486,3.082,2.027,10.295,2.676,13.295
				c0.649,3.002,1.216,5.189,2.675,6.975c1.459,1.783,2.188,2.838,4.622,3.484c2.432,0.648,7.7,0.57,10.134,0.57
				c2.432,0,6.484-0.158,7.539,0.002c1.054,0.16,2.922,1.617,2.922,3.48c0,1.867-0.812,3.816-2.678,4.301
				c-1.865,0.486-13.865,0.406-16.945,0c-3.081-0.404-9.161-2.92-12.323-8.109c-3.162-5.189-4.215-13.053-4.865-17.107
				c-0.649-4.052-1.865-9.242-1.865-11.431C28.206,33.253,30.637,32.197,30.637,32.197z"/>
		</g>
		<g>
			<path d="M35.096,92.253c-0.321,0-0.647-0.068-0.957-0.215c-1.122-0.529-1.602-1.867-1.072-2.988l8.965-18.996
				c0.531-1.121,1.869-1.602,2.99-1.072c1.122,0.529,1.603,1.867,1.073,2.988l-8.966,18.996
				C36.745,91.781,35.939,92.253,35.096,92.253L35.096,92.253z"/>
		</g>
		<g>
			<path d="M65.041,92.253c-0.983,0-1.886-0.648-2.164-1.643l-4.913-17.623c-0.335-1.195,0.366-2.434,1.562-2.768
				c1.192-0.332,2.434,0.365,2.767,1.561l4.914,17.623c0.334,1.197-0.366,2.434-1.561,2.768
				C65.442,92.226,65.24,92.253,65.041,92.253L65.041,92.253z"/>
		</g>
	</g>
	<g>
		<path d="M38.942,30.684c-1.536-9.998,12.821-13.035,15.129-2.821l3.93,19.531l14.615,0.043c4.275,0,6.495,3.373,6.495,6.58v26.537
			c0,6.453-9.186,6.412-9.186-0.129c0-6.064,0-20.637,0-20.637H51.249c-4.358,0-7.095-2.994-7.777-6.412L38.942,30.684z"/>
	</g>
	<g>
		<path d="M44.656,19.915c4.743,0,8.632-3.846,8.632-8.589c0.04-4.744-3.804-8.632-8.59-8.632c-4.742-0.042-8.631,3.803-8.631,8.546
			C36.023,16.027,39.869,19.872,44.656,19.915z"/>
	</g>
</g>
</svg>
